<svg width="359" height="359" viewBox="0 0 359 359" fill="none" xmlns="http://www.w3.org/2000/svg">
<rect width="359" height="359" rx="89" fill="#1E2235"/>
<path opacity="0.996" fill-rule="evenodd" clip-rule="evenodd" d="M244.5 84.4961C244.372 86.6511 245.341 87.1511 246.469 88.9961C246.636 124.832 246.667 161.998 247.5 197.496C246.559 199.046 245.893 200.712 245.5 202.496C240.745 209 234.726 204 231.481 211.496C228.646 215.16 226.149 222.16 224.317 226.496C219.562 233 229.745 219 226.5 226.496C238.5 193.496 225.722 221.265 224.317 222.496C220.961 229.321 219.113 227.988 215.469 234.496C210.953 240.864 192.453 255.03 188.969 261.996C188.969 256.663 172.5 288.329 172.5 282.996C136.669 282.163 123.169 283.163 87 282.996C84.591 281.289 76.9249 278.456 73.9999 278.496C67.6699 274.496 64.4999 270.496 60.4999 263.496C60.3599 257.46 62.693 252.46 63.5 246.496C65.675 241.839 69.009 239.672 73.5 236.996C75.924 236.466 81.757 233.132 84 231.996C112.667 231.663 135.833 231.329 164.5 230.996C165.056 230.613 165.389 230.113 165.5 229.496C176.464 227.372 183.964 221.039 188 210.496C189.415 202.082 187.915 194.249 183.5 186.996C179.933 183.916 176.267 181.083 172.5 178.496C170.723 177.396 168.723 176.562 166.5 175.996C138.167 175.663 109.833 175.329 81.4999 174.996C79.1339 174.556 76.8009 174.056 74.4999 173.496C68.4939 170.823 64.1599 166.49 61.4999 160.496C59.9379 152.379 60.2709 144.379 62.4999 136.496C65.5739 131.087 80.9079 126.587 86.4999 123.996C124.326 123.394 150.992 123.227 188.5 122.496C189.906 122.023 190.573 121.023 190.5 119.496C199.544 102.29 208.18 86.9571 218.469 70.4961C227.129 71.0051 235.494 73.0051 241.5 79.4961C242.952 80.9361 243.952 82.6021 244.5 84.4961Z" fill="#FEFEFE"/>
<path opacity="0.996" fill-rule="evenodd" clip-rule="evenodd" d="M319 85.6406C326.631 93.7726 334.464 101.773 342.5 109.641C343.167 111.308 343.167 112.974 342.5 114.641C316.492 140.482 290.659 166.482 265 192.641C263.902 191.54 263.735 190.207 264.5 188.641C281.878 153.949 299.211 119.282 316.5 84.6406C317.171 85.3926 318.004 85.7266 319 85.6406Z" fill="#F4C164"/>
<path opacity="0.996" fill-rule="evenodd" clip-rule="evenodd" d="M319 85.6404C318.004 85.7264 317.171 85.3924 316.5 84.6404C299.211 119.281 281.878 153.948 264.5 188.64C263.735 190.206 263.902 191.539 265 192.64C235.333 221.64 206 250.973 177 280.64C176.124 280.771 175.457 280.438 175 279.64C194.735 238.504 214.735 197.504 235 156.64C259.798 131.341 284.798 106.175 310 81.1404C314.05 80.4984 317.05 81.9984 319 85.6404Z" fill="#F5AA64"/>
<path opacity="0.996" fill-rule="evenodd" clip-rule="evenodd" d="M126 188.641C120.107 203.312 113.441 217.645 106 231.641C105.543 232.439 104.876 232.772 104 232.641C95.0352 224.177 86.2022 215.51 77.5002 206.641C76.8332 204.641 76.8332 202.641 77.5002 200.641C86.6672 191.474 95.8333 182.308 105 173.141C107 172.474 109 172.474 111 173.141C116.203 178.176 121.203 183.343 126 188.641Z" fill="#F36464"/>
<path opacity="0.996" fill-rule="evenodd" clip-rule="evenodd" d="M126 188.641C137 198.974 147.667 209.641 158 220.641C152.464 232.044 146.631 243.377 140.5 254.641C138.768 258.11 137.602 261.777 137 265.641C125.667 254.974 114.667 243.974 104 232.641C104.876 232.772 105.543 232.439 106 231.641C113.441 217.645 120.107 203.312 126 188.641Z" fill="#F47B64"/>
<path opacity="0.996" fill-rule="evenodd" clip-rule="evenodd" d="M235 156.641C214.735 197.505 194.735 238.505 175 279.641C175.457 280.439 176.124 280.772 177 280.641C173.529 283.281 170.529 286.447 168 290.141C166.135 291.442 164.135 291.776 162 291.141C153.464 282.773 145.131 274.273 137 265.641C137.602 261.777 138.768 258.11 140.5 254.641C146.631 243.377 152.464 232.044 158 220.641C159.796 221.934 161.463 223.434 163 225.141C164 225.808 165 225.808 166 225.141C188.868 202.106 211.868 179.273 235 156.641Z" fill="#F59464"/>
<ellipse cx="86" cy="149.496" rx="28" ry="25.5" fill="#FDFDFD"/>
<ellipse cx="86" cy="257.496" rx="28" ry="25.5" fill="#FDFDFD"/>
<path d="M218.5 70.4962C221.987 68.4382 225.516 67.6107 229.436 68.1709C233.356 68.7311 237.021 70.6285 239.919 73.5989C242.817 76.5694 245.199 80.718 246 84.9961C247 88.9961 245.98 93.4686 244.386 97.4662C242.793 101.464 240.11 104.813 236.713 107.046C233.316 109.279 229.373 110.286 225.434 109.926C221.495 109.566 217.756 107.857 214.737 105.038C211.718 102.218 209.569 98.4278 208.591 94.1951L227 88.9976L218.5 70.4962Z" fill="#FDFDFD"/>
</svg>
