<svg width="512" height="512" viewBox="0 0 512 512" fill="none" xmlns="http://www.w3.org/2000/svg">
<g clip-path="url(#clip0_140_438)">
<path d="M407.813 0H104.187C46.6461 0 0 47.0289 0 105.042V406.958C0 464.971 46.6461 512 104.187 512H407.813C465.354 512 512 464.971 512 406.958V105.042C512 47.0289 465.354 0 407.813 0Z" fill="#CC9B7A"/>
<path d="M74.6534 188.851V150.818H253.844V188.851H187.047V369H141.45V188.851H74.6534ZM294.3 369H244.868L320.188 150.818H379.634L454.847 369H405.415L350.763 200.676H349.059L294.3 369ZM291.211 283.24H407.972V319.249H291.211V283.24Z" fill="#1F1F1E"/>
</g>
<defs>
<clipPath id="clip0_140_438">
<rect width="512" height="512" fill="white"/>
</clipPath>
</defs>
</svg>
