<svg width="512" height="512" viewBox="0 0 512 512" fill="none" xmlns="http://www.w3.org/2000/svg">
<path d="M407.813 0H104.187C46.6461 0 0 47.0289 0 105.042V406.958C0 464.971 46.6461 512 104.187 512H407.813C465.354 512 512 464.971 512 406.958V105.042C512 47.0289 465.354 0 407.813 0Z" fill="#CC9B7A"/>
<path d="M242 365L317.885 168H346.155L427 365H397.241L374.426 305.453H292.094L270.271 365H242ZM299.038 284.116H365.995L345.66 229.531C339.212 213.156 334.748 199.262 331.772 188.841C329.292 201.247 325.82 214.149 321.357 226.554L299.038 284.116Z" fill="black"/>
<path d="M164.876 365V191.322H100V168H256V191.322H191.124V365H164.876Z" fill="black"/>
</svg>
